<svg width="28" height="28" viewBox="0 0 28 28" fill="none" xmlns="http://www.w3.org/2000/svg">
<path d="M14.4316 2.50848L24.9316 6.70845C25.3399 6.87178 25.6666 7.36177 25.6666 7.79344V11.6668C25.6666 12.3084 25.1416 12.8334 24.4999 12.8334H3.49992C2.85825 12.8334 2.33325 12.3084 2.33325 11.6668V7.79344C2.33325 7.36177 2.65992 6.87178 3.06826 6.70845L13.5683 2.50848C13.8016 2.41514 14.1982 2.41514 14.4316 2.50848Z" stroke="#0057CD" stroke-width="1.5" stroke-miterlimit="10" stroke-linecap="round" stroke-linejoin="round"/>
<path d="M25.6666 25.6667H2.33325V22.1667C2.33325 21.525 2.85825 21 3.49992 21H24.4999C25.1416 21 25.6666 21.525 25.6666 22.1667V25.6667Z" stroke="#0057CD" stroke-width="1.5" stroke-miterlimit="10" stroke-linecap="round" stroke-linejoin="round"/>
<path d="M4.66675 20.9999V12.8333" stroke="#0057CD" stroke-width="1.5" stroke-miterlimit="10" stroke-linecap="round" stroke-linejoin="round"/>
<path d="M9.33325 20.9999V12.8333" stroke="#0057CD" stroke-width="1.5" stroke-miterlimit="10" stroke-linecap="round" stroke-linejoin="round"/>
<path d="M14 20.9999V12.8333" stroke="#0057CD" stroke-width="1.5" stroke-miterlimit="10" stroke-linecap="round" stroke-linejoin="round"/>
<path d="M18.6667 20.9999V12.8333" stroke="#0057CD" stroke-width="1.5" stroke-miterlimit="10" stroke-linecap="round" stroke-linejoin="round"/>
<path d="M23.3333 20.9999V12.8333" stroke="#0057CD" stroke-width="1.5" stroke-miterlimit="10" stroke-linecap="round" stroke-linejoin="round"/>
<path d="M1.16675 25.6667H26.8334" stroke="#0057CD" stroke-width="1.5" stroke-miterlimit="10" stroke-linecap="round" stroke-linejoin="round"/>
<path d="M14 9.91675C14.9665 9.91675 15.75 9.13325 15.75 8.16675C15.75 7.20025 14.9665 6.41675 14 6.41675C13.0335 6.41675 12.25 7.20025 12.25 8.16675C12.25 9.13325 13.0335 9.91675 14 9.91675Z" stroke="#0057CD" stroke-width="1.5" stroke-miterlimit="10" stroke-linecap="round" stroke-linejoin="round"/>
</svg>
