<svg width="35" height="35" viewBox="0 0 35 35" fill="none" xmlns="http://www.w3.org/2000/svg">
<path d="M17.5 0C13.3875 0 9.58125 1.44377 6.5625 3.85002C2.5375 7.04377 0 11.9875 0 17.5C0 20.7812 0.918758 23.8875 2.53751 26.5125C5.55626 31.5875 11.1125 35 17.5 35C21.9188 35 25.9438 33.3812 29.0063 30.625C30.3625 29.4875 31.5437 28.0875 32.4625 26.5125C34.0812 23.8875 35 20.7812 35 17.5C35 7.83125 27.1688 0 17.5 0ZM10.5875 15.1376C9.31874 13.8688 9.31874 11.7689 10.5875 10.5001C11.9 9.23136 13.9563 9.23136 15.2688 10.5001L17.5437 12.8187L19.7312 10.5874C21.0437 9.31868 23.1 9.31868 24.4125 10.5874C25.6813 11.8999 25.6813 13.9562 24.4125 15.2687L22.1812 17.4562L24.5 19.7313C25.7687 21.0438 25.7687 23.1001 24.5 24.4126C23.8437 25.0251 23.0125 25.3312 22.1812 25.3312C21.35 25.3312 20.5188 25.0251 19.8625 24.4126L17.5437 22.0937L15.1375 24.4999C14.4812 25.1561 13.65 25.4625 12.8188 25.4625C11.9875 25.4625 11.1563 25.1561 10.5 24.4999C9.23126 23.2311 9.23126 21.1312 10.5 19.8624L12.9063 17.4562L10.5875 15.1376Z" fill="#838383"/>
</svg>
