<svg width="45" height="45" viewBox="0 0 45 45" fill="none" xmlns="http://www.w3.org/2000/svg">
<path opacity="0.4" d="M36.2813 10.6124L24.4875 4.25625C23.25 3.58125 21.75 3.58125 20.4937 4.25625L8.70002 10.6124C7.83752 11.0812 7.31248 12 7.31248 13.0125C7.31248 14.025 7.83752 14.9437 8.70002 15.4124L20.4937 21.7687C21.1125 22.1062 21.8062 22.275 22.4812 22.275C23.175 22.275 23.85 22.1062 24.4687 21.7687L36.2625 15.4124C37.125 14.9437 37.65 14.025 37.65 13.0125C37.6687 12 37.1438 11.0812 36.2813 10.6124Z" fill="#0057CD"/>
<path opacity="0.4" d="M18.5625 23.9812L7.59373 18.4875C6.74998 18.0562 5.77499 18.1125 4.96874 18.6C4.16249 19.0875 3.69376 19.95 3.69376 20.8875V31.2562C3.69376 33.0562 4.68748 34.6687 6.29998 35.475L17.2687 40.9501C17.6437 41.1376 18.0563 41.2312 18.4688 41.2312C18.9563 41.2312 19.4438 41.1 19.875 40.8188C20.6813 40.3313 21.15 39.4687 21.15 38.5312V28.1625C21.1688 26.4 20.175 24.7875 18.5625 23.9812Z" fill="#0057CD"/>
<path opacity="0.4" d="M41.3063 20.9064V29.5125C41.2875 29.4938 41.2688 29.4563 41.25 29.4376C41.25 29.4188 41.2313 29.4 41.2125 29.3813C41.1375 29.2688 41.0437 29.1563 40.95 29.0626C40.9312 29.0438 40.9125 29.0064 40.8937 28.9876C39.375 27.3001 37.1438 26.2501 34.6875 26.2501C32.325 26.2501 30.1687 27.225 28.6312 28.8C27.15 30.3188 26.25 32.4001 26.25 34.6876C26.25 36.2626 26.7 37.7626 27.4687 39.0376C27.7875 39.5813 28.1813 40.0688 28.6125 40.5188L27.7313 40.9688C27.3563 41.1563 26.9437 41.2501 26.5312 41.2501C26.0437 41.2501 25.5563 41.1189 25.1063 40.8376C24.3188 40.3501 23.8312 39.4876 23.8312 38.5501V28.2C23.8312 26.4 24.825 24.7875 26.4375 23.9813L37.4063 18.5063C38.25 18.0751 39.225 18.1126 40.0313 18.6188C40.8188 19.1063 41.3063 19.9689 41.3063 20.9064Z" fill="#0057CD"/>
<path d="M34.6875 26.25C32.7047 26.25 30.8695 26.9461 29.4141 28.1063C27.4734 29.6461 26.25 32.0297 26.25 34.6875C26.25 36.2695 26.693 37.7672 27.4734 39.0328C28.9289 41.4797 31.6078 43.125 34.6875 43.125C36.818 43.125 38.7586 42.3445 40.2352 41.0156C40.8891 40.4672 41.4586 39.7922 41.9016 39.0328C42.682 37.7672 43.125 36.2695 43.125 34.6875C43.125 30.0258 39.3492 26.25 34.6875 26.25ZM31.3547 33.5485C30.743 32.9368 30.743 31.9243 31.3547 31.3126C31.9875 30.7008 32.9789 30.7008 33.6117 31.3126L34.7086 32.4305L35.7633 31.3547C36.3961 30.7429 37.3875 30.7429 38.0203 31.3547C38.632 31.9875 38.632 32.9789 38.0203 33.6117L36.9445 34.6664L38.0625 35.7633C38.6742 36.3961 38.6742 37.3875 38.0625 38.0203C37.7461 38.3157 37.3453 38.4632 36.9445 38.4632C36.5437 38.4632 36.143 38.3157 35.8266 38.0203L34.7086 36.9023L33.5484 38.0624C33.232 38.3789 32.8313 38.5266 32.4305 38.5266C32.0297 38.5266 31.6289 38.3789 31.3125 38.0624C30.7008 37.4507 30.7008 36.4382 31.3125 35.8265L32.4727 34.6664L31.3547 33.5485Z" fill="#838383"/>
</svg>

