<svg width="28" height="28" viewBox="0 0 28 28" fill="none" xmlns="http://www.w3.org/2000/svg">
<path d="M21.0467 15.8082C20.5567 16.2865 20.2767 16.9748 20.3467 17.7098C20.4517 18.9698 21.6067 19.8915 22.8667 19.8915H25.0834V21.2798C25.0834 23.6948 23.1117 25.6665 20.6967 25.6665H7.30341C4.88841 25.6665 2.91675 23.6948 2.91675 21.2798V13.4282C2.91675 11.0132 4.88841 9.0415 7.30341 9.0415H20.6967C23.1117 9.0415 25.0834 11.0132 25.0834 13.4282V15.1082H22.7267C22.0734 15.1082 21.4784 15.3648 21.0467 15.8082Z" stroke="#0057CD" stroke-width="1.5" stroke-linecap="round" stroke-linejoin="round"/>
<path d="M2.91675 14.4783V9.14667C2.91675 7.75833 3.76841 6.52161 5.06342 6.03161L14.3267 2.53161C15.7734 1.98328 17.3251 3.05665 17.3251 4.60832V9.04163" stroke="#0057CD" stroke-width="1.5" stroke-linecap="round" stroke-linejoin="round"/>
<path d="M26.3187 16.2986V18.702C26.3187 19.3437 25.8054 19.8686 25.152 19.8919H22.8654C21.6054 19.8919 20.4504 18.9703 20.3454 17.7103C20.2754 16.9753 20.5554 16.2869 21.0454 15.8086C21.477 15.3653 22.072 15.1086 22.7254 15.1086H25.152C25.8054 15.132 26.3187 15.6569 26.3187 16.2986Z" stroke="#0057CD" stroke-width="1.5" stroke-linecap="round" stroke-linejoin="round"/>
<path d="M8.16675 14H16.3334" stroke="#0057CD" stroke-width="1.5" stroke-linecap="round" stroke-linejoin="round"/>
</svg>
