<svg width="18" height="19" viewBox="0 0 18 19" fill="none" xmlns="http://www.w3.org/2000/svg">
<path d="M16 1H2C1.44772 1 1 1.4626 1 2.03325V3.67177C1 3.9458 1.10536 4.20861 1.29289 4.40239L6.70711 9.99663C6.89464 10.1904 7 10.4532 7 10.7272V16.8934C7 17.6615 7.78231 18.1611 8.44721 17.8176L10.4472 16.7844C10.786 16.6093 11 16.2516 11 15.8602V10.7272C11 10.4532 11.1054 10.1904 11.2929 9.99663L16.7071 4.40239C16.8946 4.20861 17 3.9458 17 3.67177V2.03325C17 1.4626 16.5523 1 16 1Z" stroke="#201A18" stroke-width="2" stroke-linecap="round" stroke-linejoin="round"/>
</svg>