<svg width="36" height="36" viewBox="0 0 36 36" fill="none" xmlns="http://www.w3.org/2000/svg">
<path d="M14.3542 20.5522C14.3542 21.9668 15.448 23.1043 16.7897 23.1043H19.5313C20.698 23.1043 21.6459 22.1126 21.6459 20.873C21.6459 19.5459 21.0626 19.0647 20.2022 18.7584L15.8126 17.2272C14.9522 16.9209 14.3688 16.4543 14.3688 15.1126C14.3688 13.8876 15.3167 12.8813 16.4834 12.8813H19.2251C20.5667 12.8813 21.6605 14.0188 21.6605 15.4334" stroke="#0057CD" stroke-width="1.5" stroke-linecap="round" stroke-linejoin="round"/>
<path d="M18 11.4375V24.5625" stroke="#0057CD" stroke-width="1.5" stroke-linecap="round" stroke-linejoin="round"/>
<path d="M32.5834 18.0001C32.5834 26.0501 26.0501 32.5834 18.0001 32.5834C9.95008 32.5834 3.41675 26.0501 3.41675 18.0001C3.41675 9.95008 9.95008 3.41675 18.0001 3.41675" stroke="#0057CD" stroke-width="1.5" stroke-linecap="round" stroke-linejoin="round"/>
<path d="M25.2917 4.875V10.7083H31.1251" stroke="#0057CD" stroke-width="1.5" stroke-linecap="round" stroke-linejoin="round"/>
<path d="M32.5834 3.41675L25.2917 10.7084" stroke="#0057CD" stroke-width="1.5" stroke-linecap="round" stroke-linejoin="round"/>
</svg>