<svg width="35" height="35" viewBox="0 0 35 35" fill="none" xmlns="http://www.w3.org/2000/svg">
<path d="M13.8542 20.0522C13.8542 21.4668 14.948 22.6043 16.2897 22.6043H19.0313C20.198 22.6043 21.1459 21.6126 21.1459 20.373C21.1459 19.0459 20.5626 18.5647 19.7022 18.2584L15.3126 16.7272C14.4522 16.4209 13.8688 15.9543 13.8688 14.6126C13.8688 13.3876 14.8167 12.3813 15.9834 12.3813H18.7251C20.0667 12.3813 21.1605 13.5188 21.1605 14.9334" stroke="#DC4D01" stroke-width="1.5" stroke-linecap="round" stroke-linejoin="round"/>
<path d="M17.5 10.9375V24.0625" stroke="#DC4D01" stroke-width="1.5" stroke-linecap="round" stroke-linejoin="round"/>
<path d="M32.0834 17.5001C32.0834 25.5501 25.5501 32.0834 17.5001 32.0834C9.45008 32.0834 2.91675 25.5501 2.91675 17.5001C2.91675 9.45008 9.45008 2.91675 17.5001 2.91675" stroke="#DC4D01" stroke-width="1.5" stroke-linecap="round" stroke-linejoin="round"/>
<path d="M32.0833 8.75008V2.91675H26.25" stroke="#DC4D01" stroke-width="1.5" stroke-linecap="round" stroke-linejoin="round"/>
<path d="M24.7917 10.2084L32.0834 2.91675" stroke="#DC4D01" stroke-width="1.5" stroke-linecap="round" stroke-linejoin="round"/>
</svg>
