<svg width="28" height="28" viewBox="0 0 28 28" fill="none" xmlns="http://www.w3.org/2000/svg">
<path d="M22.5165 9.23998V15.2483C22.5165 18.8417 20.4632 20.3816 17.3832 20.3816H7.1282C6.6032 20.3816 6.10153 20.335 5.63487 20.23C5.3432 20.1834 5.06321 20.1017 4.80654 20.0084C3.05654 19.355 1.99487 17.8383 1.99487 15.2483V9.23998C1.99487 5.64665 4.0482 4.10669 7.1282 4.10669H17.3832C19.9965 4.10669 21.8749 5.21502 22.3765 7.74668C22.4582 8.21335 22.5165 8.69165 22.5165 9.23998Z" stroke="#FEFBFF" stroke-width="1.5" stroke-miterlimit="10" stroke-linecap="round" stroke-linejoin="round"/>
<path d="M26.0179 12.7401V18.7485C26.0179 22.3418 23.9646 23.8818 20.8846 23.8818H10.6296C9.76623 23.8818 8.98457 23.7652 8.30791 23.5085C6.91957 22.9952 5.97456 21.9335 5.63623 20.2302C6.1029 20.3352 6.60456 20.3818 7.12956 20.3818H17.3846C20.4646 20.3818 22.5179 18.8418 22.5179 15.2485V9.24012C22.5179 8.69179 22.4712 8.20183 22.3779 7.74683C24.5946 8.21349 26.0179 9.77679 26.0179 12.7401Z" stroke="#FEFBFF" stroke-width="1.5" stroke-miterlimit="10" stroke-linecap="round" stroke-linejoin="round"/>
<path d="M12.248 15.33C13.949 15.33 15.328 13.951 15.328 12.2499C15.328 10.5489 13.949 9.16992 12.248 9.16992C10.5469 9.16992 9.16797 10.5489 9.16797 12.2499C9.16797 13.951 10.5469 15.33 12.248 15.33Z" stroke="#FEFBFF" stroke-width="1.5" stroke-miterlimit="10" stroke-linecap="round" stroke-linejoin="round"/>
<path d="M5.57666 9.68335V14.8167" stroke="#FEFBFF" stroke-width="1.5" stroke-miterlimit="10" stroke-linecap="round" stroke-linejoin="round"/>
<path d="M18.9253 9.68359V14.817" stroke="#FEFBFF" stroke-width="1.5" stroke-miterlimit="10" stroke-linecap="round" stroke-linejoin="round"/>
</svg>
