<svg width="24" height="24" viewBox="0 0 24 24" fill="none" xmlns="http://www.w3.org/2000/svg">
    <path
        d="M9.5 13.7502C9.5 14.7202 10.25 15.5002 11.17 15.5002H13.05C13.85 15.5002 14.5 14.8202 14.5 13.9702C14.5 13.0602 14.1 12.7302 13.51 12.5202L10.5 11.4702C9.91 11.2602 9.51001 10.9402 9.51001 10.0202C9.51001 9.18023 10.16 8.49023 10.96 8.49023H12.84C13.76 8.49023 14.51 9.27023 14.51 10.2402"
        stroke="#292D32" stroke-width="1.5" stroke-linecap="round" stroke-linejoin="round" />
    <path d="M12 7.5V16.5" stroke="#292D32" stroke-width="1.5" stroke-linecap="round"
        stroke-linejoin="round" />
    <path d="M22 12C22 17.52 17.52 22 12 22C6.48 22 2 17.52 2 12C2 6.48 6.48 2 12 2"
        stroke="#292D32" stroke-width="1.5" stroke-linecap="round" stroke-linejoin="round" />
    <path
        d="M22 5C22 5.9 21.6025 6.7025 20.98 7.25C20.4475 7.715 19.7575 8 19 8C17.3425 8 16 6.6575 16 5C16 4.055 16.435 3.2075 17.125 2.66C17.6425 2.2475 18.295 2 19 2C20.6575 2 22 3.3425 22 5Z"
        stroke="#292D32" stroke-miterlimit="10" stroke-linecap="round" stroke-linejoin="round" />
    <path d="M19.1875 4.0625V5.1875L18.25 5.75" stroke="#292D32" stroke-miterlimit="10"
        stroke-linecap="round" stroke-linejoin="round" />
</svg>
