<svg width="45" height="45" viewBox="0 0 45 45" fill="none" xmlns="http://www.w3.org/2000/svg">
<path opacity="0.4" d="M36.2813 10.6124L24.4875 4.25625C23.25 3.58125 21.75 3.58125 20.4937 4.25625L8.70004 10.6124C7.83754 11.0812 7.3125 12 7.3125 13.0125C7.3125 14.025 7.83754 14.9437 8.70004 15.4124L20.4937 21.7687C21.1125 22.1062 21.8062 22.275 22.4812 22.275C23.175 22.275 23.85 22.1062 24.4687 21.7687L36.2625 15.4124C37.125 14.9437 37.65 14.025 37.65 13.0125C37.6687 12 37.1438 11.0812 36.2813 10.6124Z" fill="#0057CD"/>
<path opacity="0.4" d="M18.5625 23.9812L7.59373 18.4875C6.74998 18.0562 5.77499 18.1125 4.96874 18.6C4.16249 19.0875 3.69376 19.95 3.69376 20.8875V31.2562C3.69376 33.0562 4.68748 34.6687 6.29998 35.475L17.2687 40.9501C17.6437 41.1376 18.0563 41.2312 18.4688 41.2312C18.9563 41.2312 19.4438 41.1 19.875 40.8188C20.6813 40.3313 21.15 39.4687 21.15 38.5312V28.1625C21.1688 26.4 20.175 24.7875 18.5625 23.9812Z" fill="#0057CD"/>
<path opacity="0.4" d="M41.3063 20.9064V29.5125C41.2875 29.4938 41.2688 29.4563 41.25 29.4376C41.25 29.4188 41.2313 29.4 41.2125 29.3813C41.1375 29.2688 41.0437 29.1563 40.95 29.0626C40.9312 29.0438 40.9125 29.0064 40.8937 28.9876C39.375 27.3001 37.1438 26.2501 34.6875 26.2501C32.325 26.2501 30.1687 27.225 28.6312 28.8C27.15 30.3188 26.25 32.4001 26.25 34.6876C26.25 36.2626 26.7 37.7626 27.4687 39.0376C27.7875 39.5813 28.1813 40.0688 28.6125 40.5188L27.7313 40.9688C27.3563 41.1563 26.9437 41.2501 26.5312 41.2501C26.0437 41.2501 25.5563 41.1189 25.1063 40.8376C24.3188 40.3501 23.8312 39.4876 23.8312 38.5501V28.2C23.8312 26.4 24.825 24.7875 26.4375 23.9813L37.4063 18.5063C38.25 18.0751 39.225 18.1126 40.0313 18.6188C40.8188 19.1063 41.3063 19.9689 41.3063 20.9064Z" fill="#0057CD"/>
<path d="M41.2125 29.3438C39.675 27.45 37.3313 26.25 34.6875 26.25C32.7 26.25 30.8625 26.9437 29.4188 28.1062C27.4688 29.6437 26.25 32.025 26.25 34.6875C26.25 37.3313 27.45 39.675 29.3437 41.2125C30.7875 42.4125 32.6625 43.125 34.6875 43.125C36.825 43.125 38.7563 42.3188 40.2563 41.025C42 39.4688 43.125 37.2188 43.125 34.6875C43.125 32.6625 42.4125 30.7875 41.2125 29.3438ZM36.6187 35.2126C36.6187 35.7001 36.3563 36.1687 35.9438 36.4125L33.3 37.9875C33.075 38.1188 32.8312 38.1937 32.5687 38.1937C32.1 38.1937 31.6313 37.95 31.3688 37.5188C30.975 36.8438 31.1812 35.9812 31.8562 35.5875L33.8062 34.425V32.0625C33.8062 31.2937 34.4437 30.6562 35.2125 30.6562C35.9812 30.6562 36.6187 31.2937 36.6187 32.0625V35.2126Z" fill="#0057CD"/>
</svg>
