<svg width="35" height="35" viewBox="0 0 35 35" fill="none" xmlns="http://www.w3.org/2000/svg">
<path d="M31.0334 6.41652C27.8445 2.48875 22.9833 0 17.5 0C13.3778 0 9.56668 1.43885 6.57223 3.84996C2.52779 7.03885 0 11.9778 0 17.5C0 20.7667 0.93331 23.8778 2.52775 26.5222C3.57775 28.2722 4.90001 29.7888 6.45557 31.0333H6.4945C9.48894 33.5221 13.3389 35 17.5 35C21.9333 35 25.9389 33.3667 29.0111 30.6445C30.3722 29.4778 31.5389 28.0778 32.4722 26.5222C34.0667 23.8778 35 20.7667 35 17.5C35 13.3 33.5223 9.41097 31.0334 6.41652ZM26.2889 15.3222L16.9555 23.9555C16.4111 24.461 15.6722 24.7333 14.9722 24.7333C14.2334 24.7333 13.4945 24.4609 12.9111 23.8776L8.59441 19.561C7.46663 18.4332 7.46663 16.5666 8.59441 15.4388C9.72219 14.311 11.5888 14.311 12.7166 15.4388L15.05 17.7723L22.3222 11.0443C23.4888 9.95542 25.3555 10.0334 26.4444 11.2C27.5722 12.4056 27.4945 14.2333 26.2889 15.3222Z" fill="#379800"/>
</svg>
