<svg width="45" height="45" viewBox="0 0 45 45" fill="none" xmlns="http://www.w3.org/2000/svg">
<path opacity="0.4" d="M36.2813 10.6124L24.4875 4.25625C23.25 3.58125 21.75 3.58125 20.4937 4.25625L8.70004 10.6124C7.83754 11.0812 7.3125 12 7.3125 13.0125C7.3125 14.025 7.83754 14.9437 8.70004 15.4124L20.4937 21.7687C21.1125 22.1062 21.8062 22.275 22.4812 22.275C23.1562 22.275 23.85 22.1062 24.4687 21.7687L36.2625 15.4124C37.125 14.9437 37.65 14.025 37.65 13.0125C37.6875 12 37.1438 11.0812 36.2813 10.6124Z" fill="#0057CD"/>
<path opacity="0.4" d="M18.5625 23.9812L7.59373 18.4875C6.74998 18.0562 5.77499 18.1125 4.96874 18.6C4.16249 19.0875 3.69376 19.95 3.69376 20.8875V31.2562C3.69376 33.0562 4.68748 34.6687 6.29998 35.475L17.2687 40.9501C17.6437 41.1376 18.0563 41.2312 18.4688 41.2312C18.9563 41.2312 19.4438 41.1 19.875 40.8188C20.6813 40.3313 21.15 39.4687 21.15 38.5312V28.1625C21.1688 26.4 20.175 24.7875 18.5625 23.9812Z" fill="#0057CD"/>
<path opacity="0.4" d="M41.3063 20.9064V29.5125C41.2875 29.4938 41.2688 29.4563 41.25 29.4376C41.25 29.4188 41.2313 29.4 41.2125 29.3813C41.1375 29.2688 41.0437 29.1563 40.95 29.0626C40.9312 29.0438 40.9125 29.0064 40.8937 28.9876C39.375 27.3001 37.1438 26.2501 34.6875 26.2501C32.325 26.2501 30.1687 27.225 28.6312 28.8C27.15 30.3188 26.25 32.4001 26.25 34.6876C26.25 36.2626 26.7 37.7626 27.4687 39.0376C27.7875 39.5813 28.1813 40.0688 28.6125 40.5188L27.7313 40.9688C27.3563 41.1563 26.9437 41.2501 26.5312 41.2501C26.0437 41.2501 25.5563 41.1189 25.1063 40.8376C24.3188 40.3501 23.8312 39.4876 23.8312 38.5501V28.2C23.8312 26.4 24.825 24.7875 26.4375 23.9813L37.4063 18.5063C38.25 18.0751 39.225 18.1126 40.0313 18.6188C40.8188 19.1063 41.3063 19.9689 41.3063 20.9064Z" fill="#0057CD"/>
<path d="M41.2125 29.3813C39.675 27.4875 37.3313 26.2876 34.6875 26.2876C32.7 26.2876 30.8625 26.9813 29.4188 28.1438C27.4688 29.6813 26.25 32.0626 26.25 34.7251C26.25 36.3001 26.7 37.8001 27.4687 39.0751C27.975 39.9189 28.6125 40.6501 29.3625 41.2501H29.3813C30.825 42.4501 32.6812 43.1626 34.6875 43.1626C36.825 43.1626 38.7562 42.3751 40.2375 41.0626C40.8937 40.5001 41.4563 39.8251 41.9063 39.0751C42.675 37.8001 43.125 36.3001 43.125 34.7251C43.125 32.7001 42.4125 30.825 41.2125 29.3813ZM38.925 33.6751L34.425 37.8375C34.1625 38.0813 33.8063 38.2126 33.4688 38.2126C33.1125 38.2126 32.7563 38.0813 32.475 37.8L30.3937 35.7188C29.85 35.175 29.85 34.275 30.3937 33.7313C30.9375 33.1875 31.8375 33.1875 32.3812 33.7313L33.5062 34.8564L37.0125 31.6125C37.575 31.0875 38.475 31.1251 39 31.6876C39.5437 32.2689 39.5063 33.1501 38.925 33.6751Z" fill="#379800"/>
</svg>

